<?xml version="1.0" encoding="utf-8"?>
<!DOCTYPE svg PUBLIC "-//W3C//DTD SVG 1.1//EN" "http://www.w3.org/Graphics/SVG/1.1/DTD/svg11.dtd">
<svg version="1.1" id="Layer_1" xmlns="http://www.w3.org/2000/svg" xmlns:xlink="http://www.w3.org/1999/xlink" x="0px" y="0px"
	 width="666.43px" height="163.117px" viewBox="0 0 666.43 163.117" enable-background="new 0 0 666.43 163.117"
	 xml:space="preserve">
<g>
	<g>
		<path fill="#CEB36E" d="M14.417,4.032c0.177-1.017,1.166-1.849,2.197-1.849H28.96c1.032,0,2.143,0.802,2.468,1.78l18.939,56.991
			c0.326,0.978,0.86,0.979,1.188,0.001L70.671,3.962c0.328-0.979,1.441-1.779,2.473-1.779H85.48c1.032,0,2.017,0.832,2.187,1.85
			l13.941,83.111c0.171,1.018-0.534,1.85-1.566,1.85H87.816c-1.032,0-2.018-0.832-2.191-1.85l-8.68-51.125
			c-0.173-1.018-0.584-1.05-0.912-0.071L58.787,87.215c-0.328,0.978-1.443,1.778-2.475,1.778h-10.81
			c-1.032,0-2.144-0.801-2.469-1.78L25.941,35.948c-0.326-0.978-0.738-0.948-0.915,0.069l-8.888,51.128
			c-0.177,1.017-1.167,1.849-2.198,1.849H1.583c-1.032,0-1.733-0.832-1.556-1.849L14.417,4.032z"/>
	</g>
	<g>
		<path fill="#CEB36E" d="M106.016,4.06c0-1.032,0.845-1.877,1.877-1.877h43.637c1.032,0,1.876,0.845,1.876,1.877v12.417
			c0,1.032-0.845,1.876-1.876,1.876H124.3c-1.032,0-1.876,0.845-1.876,1.876v11.944c0,1.032,0.845,1.876,1.876,1.876h27.229
			c1.032,0,1.876,0.845,1.876,1.877v12.12c0,1.032-0.845,1.876-1.876,1.876H124.3c-1.032,0-1.876,0.845-1.876,1.877v19.086
			c0,1.032,0.845,1.877,1.876,1.877h27.229c1.032,0,1.876,0.845,1.876,1.876v12.476c0,1.032-0.845,1.876-1.876,1.876h-43.637
			c-1.032,0-1.877-0.845-1.877-1.876V4.06z"/>
	</g>
	<g>
		<path fill="#CEB36E" d="M158.951,4.06c0-1.032,0.845-1.877,1.876-1.877h44.227c1.032,0,1.877,0.845,1.877,1.877v12.537
			c0,1.032-0.845,1.876-1.877,1.876h-12.063c-1.032,0-1.877,0.845-1.877,1.876v66.767c0,1.032-0.845,1.876-1.876,1.876h-13.005
			c-1.032,0-1.876-0.845-1.876-1.876V20.35c0-1.032-0.845-1.876-1.877-1.876h-11.651c-1.032,0-1.876-0.845-1.876-1.876V4.06z"/>
	</g>
	<g>
		<path fill="#CEB36E" d="M211.558,4.06c0-1.032,0.845-1.877,1.876-1.877h13.753c1.032,0,2.72,0.043,3.75,0.098
			c0,0,14.541,0.757,18.61,2.469c4.066,1.713,7.338,4.555,9.814,8.527c2.476,3.975,3.715,8.677,3.715,14.107
			c0,5.705-1.369,10.473-4.102,14.311c-2.735,3.834-6.855,6.738-12.362,8.703l19.684,36.94c0.485,0.91,0.037,1.655-0.995,1.655
			h-14.311c-1.032,0-2.272-0.746-2.757-1.656l-17.761-33.454c-0.484-0.911-1.22-1.657-1.636-1.657s-0.755,0.845-0.755,1.877v33.013
			c0,1.032-0.845,1.876-1.877,1.876h-12.771c-1.032,0-1.876-0.845-1.876-1.876V4.06z M228.082,34.241
			c0,1.032,0.845,1.876,1.876,1.876h1.425c1.032,0,2.719-0.066,3.747-0.146c0,0,7.002-0.546,8.982-1.925
			c1.979-1.384,2.972-3.672,2.972-6.87c0-1.894-0.491-3.542-1.471-4.942c-0.982-1.405-2.295-2.407-3.941-3.023
			c-1.649-0.61-4.667-0.916-9.061-0.916h-2.653c-1.032,0-1.876,0.845-1.876,1.876V34.241z"/>
	</g>
	<g>
		<path fill="#CEB36E" d="M311.099,0c12.283,0,22.845,4.448,31.682,13.338c8.838,8.891,13.258,19.731,13.258,32.515
			c0,12.669-4.362,23.39-13.082,32.164c-8.72,8.773-19.298,13.161-31.738,13.161c-13.031,0-23.858-4.504-32.479-13.515
			c-8.624-9.01-12.934-19.71-12.934-32.104c0-8.301,2.008-15.934,6.023-22.896c4.015-6.965,9.537-12.481,16.565-16.555
			C295.419,2.036,302.989,0,311.099,0z M310.923,16.171c-8.036,0-14.789,2.794-20.265,8.379c-5.473,5.588-8.211,12.688-8.211,21.303
			c0,9.601,3.448,17.196,10.338,22.779c5.356,4.369,11.501,6.552,18.433,6.552c7.837,0,14.512-2.833,20.025-8.497
			c5.514-5.667,8.27-12.651,8.27-20.952c0-8.262-2.776-15.254-8.329-20.977C325.63,19.033,318.877,16.171,310.923,16.171z"/>
	</g>
	<g>
		<path fill="#CEB36E" d="M376.014,88.994c-1.031,0-1.877-0.845-1.877-1.876V4.06c0-1.032,0.846-1.877,1.877-1.877h9.897
			c1.03,0,2.72,0.032,3.75,0.07c0,0,11.833,0.444,15.497,1.464c5.201,1.376,9.336,3.936,12.409,7.672
			c3.072,3.74,4.608,8.143,4.608,13.221c0,3.303-0.699,6.303-2.097,8.998c-1.396,2.697-3.666,5.221-6.814,7.583
			c5.271,2.479,9.128,5.578,11.565,9.295c2.44,3.718,3.659,8.115,3.659,13.188c0,4.88-1.26,9.326-3.781,13.339
			c-2.521,4.013-5.769,7.013-9.746,9c-3.979,1.987-9.473,2.979-16.483,2.979H376.014z M392.538,17.939
			c-1.03,0-1.876,0.845-1.876,1.877v14.542c0,1.032,0.812,1.877,1.807,1.877c0.995,0,2.645-0.101,3.67-0.224
			c0,0,5.157-0.621,7.112-2.313c1.956-1.692,2.934-3.992,2.934-6.903c0-2.718-0.929-4.871-2.786-6.463
			c-1.855-1.593-4.68-2.392-8.471-2.392H392.538z M392.538,50.988c-1.03,0-1.876,0.845-1.876,1.876v18.497
			c0,1.032,0.846,1.876,1.876,1.876h0.392c1.03,0,2.718-0.063,3.746-0.141c0,0,9.621-0.724,12.005-2.457
			c2.387-1.73,3.58-4.247,3.58-7.555c0-3.735-1.399-6.687-4.201-8.85c-2.802-2.163-7.455-3.247-13.965-3.247H392.538z"/>
	</g>
	<g>
		<path fill="#CEB36E" d="M477.409,0c12.283,0,22.846,4.448,31.683,13.338c8.838,8.891,13.258,19.731,13.258,32.515
			c0,12.669-4.362,23.39-13.082,32.164c-8.721,8.773-19.298,13.161-31.738,13.161c-13.031,0-23.858-4.504-32.479-13.515
			c-8.623-9.01-12.934-19.71-12.934-32.104c0-8.301,2.008-15.934,6.022-22.896c4.016-6.965,9.537-12.481,16.565-16.555
			C461.729,2.036,469.299,0,477.409,0z M477.234,16.171c-8.036,0-14.789,2.794-20.266,8.379c-5.474,5.588-8.211,12.688-8.211,21.303
			c0,9.601,3.447,17.196,10.339,22.779c5.355,4.369,11.501,6.552,18.433,6.552c7.837,0,14.512-2.833,20.025-8.497
			c5.515-5.667,8.27-12.651,8.27-20.952c0-8.262-2.775-15.254-8.328-20.977C491.941,19.033,485.188,16.171,477.234,16.171z"/>
	</g>
	<g>
		<path fill="#CEB36E" d="M518.72,4.013c-0.229-1.006,0.43-1.83,1.461-1.83h12.506c1.031,0,2.062,0.823,2.29,1.83L546.69,55.77
			c0.229,1.006,0.642,1.016,0.921,0.023L562.097,3.99c0.28-0.994,1.352-1.807,2.382-1.807h9.992c1.031,0,2.107,0.812,2.388,1.804
			l14.705,51.808c0.279,0.992,0.697,0.979,0.921-0.027l11.603-51.754c0.225-1.006,1.255-1.831,2.285-1.831h12.507
			c1.03,0,1.689,0.823,1.463,1.83L601.61,87.164c-0.227,1.006-1.258,1.83-2.288,1.83h-12.1c-1.03,0-2.106-0.812-2.389-1.804
			l-14.965-52.515c-0.282-0.992-0.74-0.991-1.021,0.002l-14.685,52.51c-0.28,0.994-1.352,1.807-2.382,1.807h-11.949
			c-1.03,0-2.062-0.823-2.29-1.83L518.72,4.013z"/>
	</g>
	<g>
		<path fill="#CEB36E" d="M625.826,4.06c0-1.032,0.846-1.877,1.876-1.877h12.773c1.03,0,1.876,0.845,1.876,1.877v67.301
			c0,1.032,0.845,1.876,1.875,1.876h20.328c1.031,0,1.876,0.845,1.876,1.876v12.003c0,1.032-0.845,1.876-1.876,1.876h-36.853
			c-1.03,0-1.876-0.845-1.876-1.876V4.06z"/>
	</g>
</g>
<g>
	<g>
		<path fill="#072C49" stroke="#072C49" stroke-width="6.2332" stroke-miterlimit="10" d="M154.348,157.796
			c-0.587,1.468-1.323,1.616-2.351,0.588c-2.056-2.204-3.524-6.61-1.32-14.54c3.671-13.363,17.476-41.271,30.402-61.539
			c-4.995-0.44-7.639-2.643-9.4-5.874c-0.735-1.468-0.295-2.204,1.613-2.496c12.339-1.47,23.354-7.491,33.194-7.932
			c7.491-0.294,13.952,1.91,17.476,11.896c3.086,8.813,1.028,17.771-4.552,25.262c-7.932,10.574-23.792,19.827-40.095,23.645
			c5.58,6.906,10.868,13.954,13.952,20.122c2.056,3.965,2.644,8.96,0.735,11.896c-0.735,1.176-1.468,1.615-2.351,0.292
			c-9.692-13.216-17.329-22.764-24.232-30.399C163.452,136.5,159.193,145.752,154.348,157.796z M184.455,98.021
			c-3.964,7.05-7.636,13.219-11.603,20.413c32.458-7.194,49.054-28.638,44.797-39.065c-3.231-8.226-17.918-0.588-27.613,2.056
			C190.036,85.537,188.419,90.677,184.455,98.021z"/>
		<path fill="#072C49" stroke="#072C49" stroke-width="6.2332" stroke-miterlimit="10" d="M231.446,155.448
			c12.191,0.585,22.914-11.163,29.229-20.855c0.733-1.176,1.908-1.176,2.496,0.147c0.588,1.173,0.145,5.285-2.496,9.104
			c-6.17,8.957-17.479,15.716-28.787,15.863c-18.654,0.293-25.115-18.066-15.57-37.014c9.547-18.945,24.527-26.582,31.871-22.323
			c3.672,2.203,6.316,4.406,8.667,7.638c2.644,3.525,1.468,12.482-4.7,19.974c-7.196,8.814-17.039,12.631-27.319,4.26
			C220.138,145.752,223.662,155.005,231.446,155.448z M243.637,121.667c4.7-6.168,7.932-13.805,5.875-15.421
			c-3.084-2.497-15.275,6.315-22.178,20.268c-0.44,0.884-0.881,1.764-1.173,2.496C233.357,133.565,239.377,127.249,243.637,121.667z
			"/>
		<path fill="#072C49" stroke="#072C49" stroke-width="6.2332" stroke-miterlimit="10" d="M265.223,159.264
			c-10.428-0.732-10.721-11.603-7.489-21.295c3.231-9.692,10.72-24.087,20.268-37.451c1.175-1.615,2.644-1.47,3.819-0.147
			c3.229,4.848,2.496,11.456-2.792,19.827c-5.435,8.664-8.372,14.542-11.456,21.591c-3.084,7.196-2.644,12.483,0.733,12.778
			c5.728,0.438,13.807-9.842,21.738-22.621c9.252-14.979,13.511-25.112,18.211-31.428c1.468-2.056,2.496-2.35,3.672-0.882
			c2.204,2.644,3.376,9.106-0.148,16.449c-3.231,6.608-10.575,17.627-13.952,25.115c-3.819,8.372-3.231,14.54,2.056,14.247
			c6.168-0.295,13.659-9.987,19.387-20.27c0.733-1.321,2.056-1.466,2.644-0.146c0.588,1.173,0.733,5.14-1.323,9.252
			C316.335,152.511,307.228,160,298.564,160c-9.547,0-13.367-6.023-12.191-14.54C281.233,152.364,273.449,159.852,265.223,159.264z"
			/>
		<path fill="#072C49" stroke="#072C49" stroke-width="6.2332" stroke-miterlimit="10" d="M361.858,99.783
			c4.847,0.735,9.399,7.932,5.728,15.569c-3.084,6.462-10.28,17.329-13.659,24.966c-3.819,8.519-2.937,15.423,2.351,15.13
			c6.021-0.295,13.217-9.987,18.8-20.27c0.732-1.321,1.761-1.321,2.496-0.146c1.028,1.616,0.732,4.992-1.323,9.252
			C372.286,152.511,363.033,160,354.514,160c-12.484,0-15.42-9.107-11.163-21.884c4.847-14.395,17.771-29.962,15.127-31.137
			c-1.468-0.588-9.984,3.524-19.384,13.806c-8.667,9.399-15.13,23.499-21.443,37.304c-0.588,1.323-1.471,1.911-2.792,0.59
			c-2.937-2.938-3.819-7.786-1.468-15.13c2.937-9.252,14.245-29.667,23.499-43.325c1.028-1.615,2.204-1.47,3.084,0
			c2.204,3.672,2.056,8.666,0.44,13.952C347.022,107.126,357.01,99.048,361.858,99.783z"/>
		<path fill="#072C49" stroke="#072C49" stroke-width="6.2332" stroke-miterlimit="10" d="M373.601,138.117
			c3.672-10.72,13.366-28.053,18.799-35.69c1.323-1.762,2.352-2.202,3.527-0.88c2.2,2.35,3.376,8.665-0.148,16.008
			c-3.084,6.463-9.252,16.448-12.336,23.792c-3.526,8.519-3.231,14.249,1.469,13.954c6.608-0.295,14.687-9.987,19.092-20.122
			c0.735-1.321,1.764-1.176,2.351,0c1.174,2.351,0.733,5.435-1.027,9.106c-4.407,9.107-13.659,15.275-21.884,15.275
			C372.28,159.56,369.489,150.161,373.601,138.117z M406.354,99.783c-1.91,2.058-6.022,1.616-8.227-2.202
			c-2.349-3.966-1.613-8.372,0.735-10.868c2.352-2.497,6.608-0.735,8.52,3.23C409.291,93.762,408.263,97.727,406.354,99.783z"/>
		<path fill="#072C49" stroke="#072C49" stroke-width="6.2332" stroke-miterlimit="10" d="M494.177,159.852
			c-12.19,0-15.274-9.106-11.015-21.59c4.995-14.393,17.771-29.96,15.274-30.842c-1.763-0.587-9.987,3.231-19.387,13.513
			c-8.52,9.252-15.42,23.352-21.443,37.156c-0.44,1.027-1.468,1.911-2.791,0.442c-2.642-2.937-3.672-7.639-1.173-14.982
			c1.615-4.553,4.845-12.188,9.252-19.975c-3.965,2.646-8.52,3.967-13.659,3.674c-2.937,12.484-12.336,27.611-23.204,31.136
			c-5.288,1.761-12.779,1.616-18.507-6.168c-6.463-8.667-4.26-21.591,2.349-33.047c5.73-9.987,14.542-18.357,23.354-19.093
			c4.404-0.44,6.903,0.882,9.84,4.848c3.523,4.699,7.931,5.58,7.048,16.156c0,0.733,0,1.761-0.145,2.642
			c9.252-0.147,18.799-10.868,26.73-22.91c1.028-1.616,2.201-1.616,3.084-0.294c2.201,3.672,2.201,8.664,0.588,13.806
			c6.608-6.903,16.301-14.834,21.295-14.247c4.846,0.588,9.4,8.078,5.729,15.569c-3.231,6.608-10.135,17.183-13.659,24.819
			c-3.819,8.371-3.084,14.982,2.496,14.835c5.875-0.147,12.778-9.695,18.507-20.268c0.588-1.176,2.056-1.176,2.496,0
			c0.735,1.764,0.735,4.7-1.469,9.252C511.801,152.511,502.842,159.852,494.177,159.852z M430.144,110.798
			c-4.112,3.378-8.227,8.519-11.456,13.952c-6.463,11.018-8.52,24.674-4.555,27.906c3.967,3.231,13.071-1.911,20.122-15.128
			c2.496-4.7,4.26-8.812,5.433-12.483C434.548,122.254,430.289,116.526,430.144,110.798z M441.599,110.798
			c-0.735-4.7-3.819-3.818-4.407,0.441c-0.44,3.23,0.588,7.49,3.524,9.841C441.599,116.967,442.04,113.442,441.599,110.798z"/>
	</g>
	<g>
		<path fill="#FFFFFF" d="M154.348,157.796c-0.587,1.468-1.323,1.616-2.351,0.588c-2.056-2.204-3.524-6.61-1.32-14.54
			c3.671-13.363,17.476-41.271,30.402-61.539c-4.995-0.44-7.639-2.643-9.4-5.874c-0.735-1.468-0.295-2.204,1.613-2.496
			c12.339-1.47,23.354-7.491,33.194-7.932c7.491-0.294,13.952,1.91,17.476,11.896c3.086,8.813,1.028,17.771-4.552,25.262
			c-7.932,10.574-23.792,19.827-40.095,23.645c5.58,6.906,10.868,13.954,13.952,20.122c2.056,3.965,2.644,8.96,0.735,11.896
			c-0.735,1.176-1.468,1.615-2.351,0.292c-9.692-13.216-17.329-22.764-24.232-30.399C163.452,136.5,159.193,145.752,154.348,157.796
			z M184.455,98.021c-3.964,7.05-7.636,13.219-11.603,20.413c32.458-7.194,49.054-28.638,44.797-39.065
			c-3.231-8.226-17.918-0.588-27.613,2.056C190.036,85.537,188.419,90.677,184.455,98.021z"/>
		<path fill="#FFFFFF" d="M231.446,155.448c12.191,0.585,22.914-11.163,29.229-20.855c0.733-1.176,1.908-1.176,2.496,0.147
			c0.588,1.173,0.145,5.285-2.496,9.104c-6.17,8.957-17.479,15.716-28.787,15.863c-18.654,0.293-25.115-18.066-15.57-37.014
			c9.547-18.945,24.527-26.582,31.871-22.323c3.672,2.203,6.316,4.406,8.667,7.638c2.644,3.525,1.468,12.482-4.7,19.974
			c-7.196,8.814-17.039,12.631-27.319,4.26C220.138,145.752,223.662,155.005,231.446,155.448z M243.637,121.667
			c4.7-6.168,7.932-13.805,5.875-15.421c-3.084-2.497-15.275,6.315-22.178,20.268c-0.44,0.884-0.881,1.764-1.173,2.496
			C233.357,133.565,239.377,127.249,243.637,121.667z"/>
		<path fill="#FFFFFF" d="M265.223,159.264c-10.428-0.732-10.721-11.603-7.489-21.295c3.231-9.692,10.72-24.087,20.268-37.451
			c1.175-1.615,2.644-1.47,3.819-0.147c3.229,4.848,2.496,11.456-2.792,19.827c-5.435,8.664-8.372,14.542-11.456,21.591
			c-3.084,7.196-2.644,12.483,0.733,12.778c5.728,0.438,13.807-9.842,21.738-22.621c9.252-14.979,13.511-25.112,18.211-31.428
			c1.468-2.056,2.496-2.35,3.672-0.882c2.204,2.644,3.376,9.106-0.148,16.449c-3.231,6.608-10.575,17.627-13.952,25.115
			c-3.819,8.372-3.231,14.54,2.056,14.247c6.168-0.295,13.659-9.987,19.387-20.27c0.733-1.321,2.056-1.466,2.644-0.146
			c0.588,1.173,0.733,5.14-1.323,9.252C316.335,152.511,307.228,160,298.564,160c-9.547,0-13.367-6.023-12.191-14.54
			C281.233,152.364,273.449,159.852,265.223,159.264z"/>
		<path fill="#FFFFFF" d="M361.858,99.783c4.847,0.735,9.399,7.932,5.728,15.569c-3.084,6.462-10.28,17.329-13.659,24.966
			c-3.819,8.519-2.937,15.423,2.351,15.13c6.021-0.295,13.217-9.987,18.8-20.27c0.732-1.321,1.761-1.321,2.496-0.146
			c1.028,1.616,0.732,4.992-1.323,9.252C372.286,152.511,363.033,160,354.514,160c-12.484,0-15.42-9.107-11.163-21.884
			c4.847-14.395,17.771-29.962,15.127-31.137c-1.468-0.588-9.984,3.524-19.384,13.806c-8.667,9.399-15.13,23.499-21.443,37.304
			c-0.588,1.323-1.471,1.911-2.792,0.59c-2.937-2.938-3.819-7.786-1.468-15.13c2.937-9.252,14.245-29.667,23.499-43.325
			c1.028-1.615,2.204-1.47,3.084,0c2.204,3.672,2.056,8.666,0.44,13.952C347.022,107.126,357.01,99.048,361.858,99.783z"/>
		<path fill="#FFFFFF" d="M373.601,138.117c3.672-10.72,13.366-28.053,18.799-35.69c1.323-1.762,2.352-2.202,3.527-0.88
			c2.2,2.35,3.376,8.665-0.148,16.008c-3.084,6.463-9.252,16.448-12.336,23.792c-3.526,8.519-3.231,14.249,1.469,13.954
			c6.608-0.295,14.687-9.987,19.092-20.122c0.735-1.321,1.764-1.176,2.351,0c1.174,2.351,0.733,5.435-1.027,9.106
			c-4.407,9.107-13.659,15.275-21.884,15.275C372.28,159.56,369.489,150.161,373.601,138.117z M406.354,99.783
			c-1.91,2.058-6.022,1.616-8.227-2.202c-2.349-3.966-1.613-8.372,0.735-10.868c2.352-2.497,6.608-0.735,8.52,3.23
			C409.291,93.762,408.263,97.727,406.354,99.783z"/>
		<path fill="#FFFFFF" d="M494.177,159.852c-12.19,0-15.274-9.106-11.015-21.59c4.995-14.393,17.771-29.96,15.274-30.842
			c-1.763-0.587-9.987,3.231-19.387,13.513c-8.52,9.252-15.42,23.352-21.443,37.156c-0.44,1.027-1.468,1.911-2.791,0.442
			c-2.642-2.937-3.672-7.639-1.173-14.982c1.615-4.553,4.845-12.188,9.252-19.975c-3.965,2.646-8.52,3.967-13.659,3.674
			c-2.937,12.484-12.336,27.611-23.204,31.136c-5.288,1.761-12.779,1.616-18.507-6.168c-6.463-8.667-4.26-21.591,2.349-33.047
			c5.73-9.987,14.542-18.357,23.354-19.093c4.404-0.44,6.903,0.882,9.84,4.848c3.523,4.699,7.931,5.58,7.048,16.156
			c0,0.733,0,1.761-0.145,2.642c9.252-0.147,18.799-10.868,26.73-22.91c1.028-1.616,2.201-1.616,3.084-0.294
			c2.201,3.672,2.201,8.664,0.588,13.806c6.608-6.903,16.301-14.834,21.295-14.247c4.846,0.588,9.4,8.078,5.729,15.569
			c-3.231,6.608-10.135,17.183-13.659,24.819c-3.819,8.371-3.084,14.982,2.496,14.835c5.875-0.147,12.778-9.695,18.507-20.268
			c0.588-1.176,2.056-1.176,2.496,0c0.735,1.764,0.735,4.7-1.469,9.252C511.801,152.511,502.842,159.852,494.177,159.852z
			 M430.144,110.798c-4.112,3.378-8.227,8.519-11.456,13.952c-6.463,11.018-8.52,24.674-4.555,27.906
			c3.967,3.231,13.071-1.911,20.122-15.128c2.496-4.7,4.26-8.812,5.433-12.483C434.548,122.254,430.289,116.526,430.144,110.798z
			 M441.599,110.798c-0.735-4.7-3.819-3.818-4.407,0.441c-0.44,3.23,0.588,7.49,3.524,9.841
			C441.599,116.967,442.04,113.442,441.599,110.798z"/>
	</g>
</g>
</svg>
