<?xml version="1.0" encoding="utf-8"?>
<!DOCTYPE svg PUBLIC "-//W3C//DTD SVG 1.1//EN" "http://www.w3.org/Graphics/SVG/1.1/DTD/svg11.dtd">
<svg version="1.1" id="Layer_1" xmlns="http://www.w3.org/2000/svg" xmlns:xlink="http://www.w3.org/1999/xlink" x="0px" y="0px"
	 width="103.001px" height="134px" viewBox="0 0 103.001 134" enable-background="new 0 0 103.001 134" xml:space="preserve">
<path fill="#FFFFFF" d="M10.49,35.566c-0.137,0-0.277-0.023-0.415-0.071c-0.657-0.229-1.004-0.947-0.775-1.604
	c2.04-5.856,5.426-11.339,9.793-15.856c4.351-4.502,9.737-8.11,15.576-10.434c0.646-0.257,1.379,0.058,1.637,0.704
	c0.257,0.646-0.058,1.379-0.705,1.636c-5.509,2.193-10.591,5.597-14.696,9.844c-4.114,4.257-7.304,9.421-9.225,14.934
	C11.499,35.24,11.011,35.566,10.49,35.566z"/>
<path fill="#FFFFFF" d="M33.733,87.796c-0.169,0-0.341-0.034-0.506-0.106c-4.056-1.781-7.812-4.145-11.163-7.027
	c-3.336-2.869-6.208-6.196-8.535-9.888c-0.371-0.588-0.195-1.366,0.394-1.737s1.367-0.195,1.738,0.394
	c4.444,7.05,10.869,12.566,18.58,15.951c0.637,0.28,0.927,1.023,0.647,1.66C34.68,87.515,34.218,87.796,33.733,87.796z"/>
<path fill="#FFFFFF" d="M69.433,87.654c-0.481,0-0.94-0.277-1.15-0.744c-0.285-0.635-0.001-1.38,0.634-1.665
	c7.528-3.378,13.821-8.808,18.198-15.702c0.373-0.587,1.151-0.762,1.739-0.389c0.587,0.373,0.761,1.151,0.389,1.739
	C84.6,78.204,77.928,83.962,69.948,87.543C69.781,87.618,69.605,87.654,69.433,87.654z"/>
<path fill="#FFFFFF" d="M92.71,36.635c-0.534,0-1.03-0.342-1.2-0.878c-3.522-11.074-11.737-20.215-22.538-25.081
	c-0.634-0.286-0.917-1.032-0.631-1.666c0.286-0.634,1.032-0.917,1.666-0.631c11.453,5.159,20.166,14.86,23.904,26.615
	c0.211,0.663-0.156,1.372-0.819,1.582C92.966,36.616,92.837,36.635,92.71,36.635z"/>
<path fill="#FFFFFF" d="M16.841,32.433c-0.192,0-0.386-0.044-0.569-0.136c-0.621-0.314-0.869-1.072-0.554-1.693
	c1.818-3.586,4.184-6.87,7.033-9.76c2.844-2.885,6.105-5.316,9.694-7.223c0.615-0.327,1.377-0.094,1.704,0.521
	c0.327,0.615,0.093,1.377-0.521,1.704c-3.363,1.788-6.419,4.064-9.083,6.767c-2.666,2.706-4.88,5.778-6.58,9.131
	C17.744,32.18,17.301,32.433,16.841,32.433z"/>
<path fill="#FFFFFF" d="M32.506,82.073c-0.206,0-0.415-0.051-0.608-0.157c-4.862-2.683-9.026-6.263-12.378-10.643
	c-0.423-0.552-0.317-1.344,0.235-1.766c0.553-0.423,1.343-0.318,1.766,0.235c3.138,4.101,7.039,7.455,11.594,9.968
	c0.609,0.336,0.831,1.102,0.494,1.712C33.381,81.837,32.95,82.073,32.506,82.073z"/>
<path fill="#FFFFFF" d="M70.597,81.95c-0.441,0-0.87-0.232-1.1-0.645c-0.34-0.607-0.124-1.375,0.483-1.715
	c4.496-2.518,8.496-6.01,11.57-10.098c0.418-0.556,1.208-0.668,1.764-0.25s0.668,1.208,0.25,1.764
	c-3.282,4.366-7.553,8.094-12.352,10.782C71.017,81.898,70.806,81.95,70.597,81.95z"/>
<path fill="#FFFFFF" d="M87.1,34.708c-0.49,0-0.957-0.288-1.16-0.768c-1.481-3.486-3.504-6.72-6.013-9.61
	c-2.495-2.874-5.414-5.345-8.675-7.344c-0.593-0.364-0.78-1.139-0.416-1.732c0.364-0.593,1.14-0.779,1.733-0.416
	c3.481,2.134,6.597,4.772,9.261,7.841c2.683,3.09,4.846,6.548,6.43,10.277c0.272,0.64-0.026,1.38-0.667,1.652
	C87.431,34.676,87.264,34.708,87.1,34.708z"/>
<path fill="#FFFFFF" d="M22.052,56.254c0.043-0.161,0.085-0.318,0.125-0.47c0.226-0.858,0.541-1.594,0.818-2.243
	c0.345-0.808,0.618-1.447,0.59-1.995c-0.032-0.637-0.495-1.465-1.376-2.461c-2.042-2.308-3.002-5.082-2.778-8.024
	c0.055-0.715,0.118-1.014,0.118-1.014c0.121-0.565-0.245-1.119-0.812-1.231L1.031,35.318C0.464,35.206,0,35.587,0,36.165v29.864
	c0,0.578,0.468,0.984,1.041,0.903l19.679-2.796c0.572-0.081,0.906-0.601,0.743-1.156c0,0-0.032-0.107-0.112-0.701
	C21.041,60.007,21.625,57.838,22.052,56.254z"/>
<path fill="#FFFFFF" d="M45.972,13.354c0.603,0,1.241,0.03,1.949,0.091c2.809,0.244,5.063,2.051,6.874,3.503
	c0.634,0.509,1.092,0.815,1.092,0.815c0.48,0.322,0.891,0.586,0.912,0.588c0,0,0,0,0.022,0c0.481,0,1.387-0.37,2.345-0.762
	c1.45-0.592,3.254-1.33,5.631-1.754c0.027-0.005,0.027-0.005,0.027-0.005c0.029-0.004,0.15-0.47,0.269-1.036l2.887-13.765
	C68.099,0.463,67.723,0,67.145,0h-29.24c-0.578,0-0.966,0.465-0.863,1.034l2.361,12.985c0.104,0.568,0.318,0.949,0.477,0.847
	c0,0,0,0,0.149-0.087C41.674,13.82,43.618,13.354,45.972,13.354z"/>
<path fill="#FFFFFF" d="M58.092,70.816c-0.407-0.41-0.697-0.605-0.645-0.434c0,0,0,0,0.05,0.154c0.781,2.4,1.846,4.323,2.997,5.417
	c0.755,0.717,0.937,1.851,0.444,2.768c-0.409,0.761-1.198,1.216-2.034,1.216c-0.172,0-0.172,0-0.172,0
	c-0.191-0.033-0.361-0.062-0.378-0.066c-0.017-0.004-0.491-0.113-1.054-0.243c0,0-0.222-0.051-0.646-0.051
	c-0.253,0-0.781,0-1.977,0.957c-0.241,0.193-0.457,0.37-0.665,0.542c-1.027,0.848-1.914,1.58-3.174,1.58
	c-1.986,0-2.988-1.803-3.719-3.119c-0.907-1.633-1.705-4.219-2.188-7.097c-0.303-1.802-0.42-4.175-0.42-4.175
	c-0.029-0.577-0.407-0.737-0.841-0.355c0,0-1.582,1.392-3.033,2.086c-0.769,0.367-1.395,0.563-1.395,0.563
	c-0.551,0.173-1.05,0.785-1.109,1.36l-6.213,61.035C31.862,133.53,32.287,134,32.865,134h34.909c0.578,0,1.019-0.472,0.98-1.048
	l-3.862-57.39c-0.039-0.576-0.514-1.212-1.056-1.413c0,0-3.283-1.216-5.138-2.797C58.207,70.931,58.092,70.816,58.092,70.816z"/>
<path fill="#FFFFFF" d="M103.001,38.054c0-0.578-0.467-0.978-1.038-0.889L86.191,39.62c-0.571,0.089-0.822,0.582-0.558,1.096
	c0,0,0.658,1.28,0.861,2.614c0.27,1.77,0.065,3.677-0.59,5.514c-0.665,1.862-1.769,3.571-3.194,4.94
	c-3.623,3.483-4.105,5.333-3.713,9.12c0.045,0.441,0.045,0.441,0.045,0.441c0.024,0.467,0.509,0.933,1.078,1.035l21.846,3.929
	c0.569,0.102,1.034-0.287,1.034-0.865V38.054z"/>
<path fill="#FFFFFF" d="M82.502,40.195c-0.396-0.386-0.86-0.72-1.393-0.987c-2.481-1.24-4.713-2.281-7.257-2.281
	c-1.977,0-4.143,0.629-6.76,2.281c-4.627,2.922-6.053,4.055-6.608,4.055c-0.163,0-0.25-0.097-0.322-0.276
	c-0.315-0.787,3.465-3.464,6.93-7.243c3.465-3.779,6.772-8.188,5.828-11.337c-0.862-2.873-2.904-6.4-6.603-6.4
	c-0.356,0-0.727,0.032-1.115,0.102c-0.29,0.052-0.569,0.109-0.841,0.171c-3.584,0.81-5.726,2.381-7.541,2.381
	c-0.148,0-0.293-0.01-0.438-0.033c-2.047-0.314-5.04-4.566-8.662-4.881c-0.564-0.049-1.152-0.083-1.749-0.083
	c-2.048,0-4.205,0.399-5.917,1.943c-0.989,0.892-1.83,2.165-2.414,3.966c-1.89,5.826,1.26,10.55,4.095,12.912
	s3.622,4.251,4.41,5.668c0.46,0.827,0.329,1.225-0.079,1.225c-0.291,0-0.722-0.202-1.181-0.595
	c-1.103-0.945-6.93-7.401-11.655-7.873c-1.106-0.111-2.101-0.178-3-0.178c-2.944,0-4.881,0.721-6.449,3.012
	c-0.725,1.059-1.37,2.335-1.742,3.723c-0.678,2.534-0.441,5.442,1.899,8.087c3.622,4.094,1.26,5.826,0.473,8.818
	c-0.531,2.017-1.42,4.75-0.301,7.282c0.541,1.223,1.549,2.4,3.293,3.426c2.174,1.279,4.661,1.96,7.101,1.96
	c1.365,0,2.716-0.214,3.989-0.656c2.053-0.713,3.904-2.018,5.29-3.981c1.336-1.892,2.141-2.526,2.616-2.526
	c0.869,0,0.636,2.118,0.534,2.526c-0.63,4.566,0.63,11.18,2.205,14.014c0.761,1.37,1.191,1.931,1.7,1.931
	c0.543,0,1.175-0.64,2.395-1.616c1.395-1.116,2.405-1.463,3.42-1.463c0.705,0,1.411,0.167,2.25,0.361
	c-3.15-2.992-4.882-9.605-4.725-13.227c0.058-1.322,0.241-1.784,0.489-1.784c0.432,0,1.059,1.398,1.559,2.098
	c0.655,0.917,3.164,5.757,8.432,7.358c1.064,0.323,2.241,0.515,3.538,0.515c7.362,0,8.847-4.442,8.559-8.815
	c-0.014-0.211-0.032-0.422-0.054-0.633c-0.473-4.567,0.315-7.086,4.41-11.022C84.71,48.659,85.388,43.008,82.502,40.195z"/>
</svg>
